<svg xmlns="http://www.w3.org/2000/svg" fill="none" viewBox="0 0 115 108">
  <path fill="#ED1C24" fill-rule="evenodd" d="M29.03 38.23h9.93c.19 21 17.23 38.05 38.02 38.05A38.06 38.06 0 0 0 115 38.23 38.06 38.06 0 0 0 76.98.2C70.42.19 63.3 1.87 59.56 4.3c4.5 2.62 10.3 8.62 12.92 14.06 4.69-1.32 10.5-.38 14.24 2.06 6.18 3.75 9.74 9 9.92 17.8.2 13.68-11.8 24.55-25.47 24.55a24.7 24.7 0 0 1-24.72-24.73h9.93L42.7 17.99 29.03 38.23Z" clip-rule="evenodd"/>
  <path fill="#004E92" fill-rule="evenodd" d="M85.97 38.05h-9.93C76.04 17.25 59 .19 38.02.19A38.06 38.06 0 0 0 0 38.23a38.06 38.06 0 0 0 38.02 38.05c6.56 0 13.67-1.69 17.42-4.13-4.5-2.62-10.3-8.62-12.92-14.05-4.69 1.31-10.5.37-14.24-2.06-6.18-3.75-9.74-9-9.92-17.8-.2-13.88 11.8-24.93 25.47-24.93a24.7 24.7 0 0 1 24.72 24.73h-9.93L72.3 58.3l13.67-20.24ZM75.82 92H70v-1.98c0-2.02 1-3 3-3h14.5V92H82v12.45c0 2.06-1.12 3-3.37 3h-2.81V92ZM54.1 86.96v12l7.68-12h6v17.62c-.19 2.06-1.31 3-3.37 3h-2.44V95.77l-7.5 11.73H48.3V89.96c.19-1.88 1.12-3 3.37-3h2.44Zm-9.5 20.54h-6V92h-3.74v9.05c0 3-1.42 6.95-6.42 6.95h-1.08v-5.06c1.75-.35 1.7-2.89 1.7-4.89V90c0-2.06 1.12-3 3.36-3h12.19v20.5ZM20.11 95.36a5.91 5.91 0 0 0-1.66-3.15c-1.65-1.48-4.04-1.48-6.06-.55-.73.37-1.47.74-2.02 1.3H10v-5c4.23-2.22 9.56-2.04 13.06 1.48 2.02 1.85 2.94 4.44 2.94 7.59 0 3.52-.92 6.3-2.94 8.14-3.31 3.15-9.01 3.7-13.06 1.48v-5h.37c.73.56 1.47 1.12 2.39 1.49 1.98.8 4.64.88 6.25-.74a4.58 4.58 0 0 0 1.47-2.96H16.8c-2.02 0-3.3-1.3-2.94-4.08h6.25Zm73.85 4.01h4.35L96 92.5l-2.04 6.87ZM91.7 90c.56-1.88 1.87-3 4.12-3h3.94l7.3 20.62h-5.96l-1.23-3.56H92.5c-1 2.94-2.67 3.56-4.17 3.56h-3L91.72 90Zm18.8-82a3.5 3.5 0 1 0 0-7 3.5 3.5 0 0 0 0 7Zm0 1a4.5 4.5 0 1 0 0-9 4.5 4.5 0 0 0 0 9Z" clip-rule="evenodd"/>
  <path fill="#004E92" d="M109.85 6.5h-.9V2.31h1.98c.19 0 .36.03.52.1a1.18 1.18 0 0 1 .65.7c.06.16.1.34.1.54 0 .28-.07.53-.2.74-.12.22-.31.37-.57.47l.82 1.64h-1.01l-.73-1.54h-.66V6.5Zm.96-2.3c.14 0 .25-.04.32-.1a.42.42 0 0 0 .12-.32v-.26c0-.14-.04-.24-.12-.3a.44.44 0 0 0-.32-.12h-.96v1.1h.96Z"/>
</svg>
