<svg viewBox="0 0 36 72" fill="none" xmlns="http://www.w3.org/2000/svg">
  <view id="eye" viewBox="0 0 36 36" />
    <path stroke="#fff" stroke-width="3" d="M1.91 16.85a32.4 32.4 0 0 1 5.89-6.27C10.64 8.3 14.13 6.5 18 6.5c3.87 0 7.36 1.8 10.2 4.08a32.4 32.4 0 0 1 5.89 6.27l1.22-.87-1.22.87c.04.06.05.1.05.15 0 .04-.01.1-.05.15a32.4 32.4 0 0 1-5.89 6.27C25.36 25.7 21.87 27.5 18 27.5c-3.87 0-7.36-1.8-10.2-4.08a32.4 32.4 0 0 1-5.89-6.27.25.25 0 0 1-.05-.15c0-.04.01-.1.05-.15Z"/>
    <circle cx="18" cy="17" r="5" stroke="#fff" stroke-width="2"/>

  <view id="eye_active" viewBox="0 36 36 36" />
    <path stroke="#004E92" stroke-width="3" d="M1.91 52.85a32.4 32.4 0 0 1 5.89-6.27c2.84-2.27 6.33-4.08 10.2-4.08 3.87 0 7.36 1.8 10.2 4.08a32.4 32.4 0 0 1 5.89 6.27l1.22-.87-1.22.87c.04.06.05.1.05.15 0 .04-.01.1-.05.15a32.4 32.4 0 0 1-5.89 6.27C25.36 61.7 21.87 63.5 18 63.5c-3.87 0-7.36-1.8-10.2-4.08a32.4 32.4 0 0 1-5.89-6.27.25.25 0 0 1-.05-.15c0-.04.01-.1.05-.15Z"/>
    <circle cx="18" cy="53" r="5" stroke="#004E92" stroke-width="2"/>

  <view id="spinner" viewBox="0 72 36 36" />
    <path stroke="#252530" stroke-width="3" d="M18 74.5a15.5 15.5 0 1 0 11.4 5"/>

</svg>
