<svg width="36" height="36" viewBox="0 0 36 36" fill="none" xmlns="http://www.w3.org/2000/svg">
  <path d="M16.5 11.5H34M16.5 11.5C16.5 13.9853 14.4853 16 12 16C9.51472 16 7.5 13.9853 7.5 11.5M16.5 11.5C16.5 9.01472 14.4853 7 12 7C9.51472 7 7.5 9.01472 7.5 11.5M2 11.5H7.5" stroke="black" stroke-width="3"/>
  <path d="M19.5 25L2 25M19.5 25C19.5 22.5147 21.5147 20.5 24 20.5C26.4853 20.5 28.5 22.5147 28.5 25M19.5 25C19.5 27.4853 21.5147 29.5 24 29.5C26.4853 29.5 28.5 27.4853 28.5 25M34 25L28.5 25" stroke="black" stroke-width="3"/>
</svg>
